<?xml version="1.0" encoding="UTF-8"?>
<svg id="Layer_1" data-name="Layer 1" xmlns="http://www.w3.org/2000/svg" viewBox="0 0 493.2 111.66">
  <path d="M47.86.08c8.82-.4,17.82.75,26.01,4.14,6.04,2.54,11.58,6.36,15.91,11.3,6.98,7.84,10.76,18.11,11.98,28.44.64,4.74.55,9.54.55,14.32.01,7.87-1.04,15.83-3.86,23.22-3.06,8.41-8.56,16.02-15.94,21.16-3.68,2.67-7.85,4.63-12.14,6.11-5.06,1.65-10.36,2.51-15.66,2.79-6.89.34-13.85-.3-20.51-2.13-5.31-1.52-10.41-3.88-14.86-7.16-5.69-4.12-10.27-9.72-13.33-16.03-3.39-6.67-5.01-14.09-5.7-21.5C-.05,60.72-.01,56.66.02,52.6c.16-9.01,1.67-18.17,5.57-26.36,2.65-5.69,6.49-10.85,11.28-14.92,3.67-3.14,7.9-5.57,12.36-7.4C35.16,1.59,41.51.39,47.86.08ZM46.9,11.79c-6.91.59-13.88,2.66-19.44,6.92-5.18,3.85-8.81,9.45-10.99,15.47-2.47,6.92-3.1,14.34-2.99,21.64-.07,5.15.2,10.32,1.25,15.38,1.44,7.24,4.67,14.32,10.05,19.48,3.87,3.75,8.76,6.39,13.96,7.77,5.92,1.65,12.16,1.92,18.25,1.29,5.6-.67,11.21-2.26,15.97-5.38,3.62-2.29,6.72-5.39,9.05-8.98,2.67-3.94,4.31-8.48,5.43-13.08,1.26-5.31,1.57-10.79,1.49-16.23.07-5.27-.15-10.57-1.26-15.74-1.42-6.67-4.15-13.24-8.9-18.24-3.54-3.82-8.1-6.64-13.05-8.23-6.03-2.08-12.5-2.47-18.83-2.06Z" style="fill: #231f20; stroke-width: 0px;"/>
  <path d="M147.13,1.49c4.46-1.4,9.2-1.64,13.85-1.42,3.2.12,6.36.66,9.48,1.35,0,3.6,0,7.2,0,10.79-3.24-.49-6.48-1.03-9.77-1.06-1.69-.2-3.4-.21-5.09,0-3.43.13-7.02,1.38-9.24,4.13-2.33,2.91-2.96,6.75-3.07,10.38-.03,1.86,0,3.71-.01,5.57,9.06.02,18.12,0,27.18.02,0,3.73,0,7.45,0,11.18-9.06.03-18.13-.03-27.19.03,0,22.6,0,45.2,0,67.81-4.21,0-8.43.02-12.64,0,0-22.6,0-45.21,0-67.81-5.61-.02-11.21,0-16.82,0,0-3.73,0-7.46,0-11.19,5.61-.01,11.21,0,16.82-.01.05-2.79-.1-5.6.15-8.38.43-4.9,1.96-9.78,4.94-13.74,2.83-3.71,6.94-6.33,11.41-7.62Z" style="fill: #231f20; stroke-width: 0px;"/>
  <path d="M192.7.16c2.13-.34,4.38-.18,6.35.75,1.91.87,3.46,2.52,4.17,4.5.91,2.5.78,5.38-.39,7.78-1.2,2.43-3.7,4.07-6.36,4.44-1.52.17-3.09.19-4.58-.21-2.27-.59-4.33-2.12-5.34-4.26-1.7-3.48-1.23-8.15,1.69-10.85,1.23-1.14,2.82-1.83,4.46-2.14Z" style="fill: #231f20; stroke-width: 0px;"/>
  <path d="M386.68.16c2.18-.34,4.5-.17,6.5.83,1.72.84,3.13,2.29,3.87,4.06,1,2.41.97,5.2,0,7.61-.89,2.18-2.81,3.88-5.05,4.6-1.51.52-3.14.54-4.71.42-2.74-.27-5.43-1.85-6.67-4.36-1.65-3.26-1.41-7.57,1-10.4,1.29-1.5,3.15-2.41,5.07-2.76Z" style="fill: #231f20; stroke-width: 0px;"/>
  <path d="M419.26,1.41c4.21,0,8.42,0,12.63,0,.02,24.65-.02,49.29.02,73.94,14.06-14.67,28.05-29.42,42.08-44.11,5.4.04,10.8-.03,16.2.03-3.01,3.14-6.01,6.29-9.09,9.37-2.88,3.05-5.82,6.04-8.76,9.03-3.67,3.9-7.5,7.66-11.17,11.56,10.66,16.36,21.38,32.67,32.03,49.03-4.97.04-9.94,0-14.91.01-8.79-13.76-17.56-27.54-26.4-41.27-6.67,6.88-13.31,13.81-19.98,20.69-.03,6.86.02,13.72-.02,20.58-4.21,0-8.41,0-12.62,0,0-36.29,0-72.58,0-108.87Z" style="fill: #231f20; stroke-width: 0px;"/>
  <path d="M326.38,7.94l.17-.14c2.67-.04,5.35,0,8.02-.02.06,7.82-.04,15.64.05,23.46,9.39,0,18.77-.05,28.15.02-.03,3.72,0,7.44-.01,11.16-9.39,0-18.78,0-28.17,0,0,13.76,0,27.53,0,41.29,0,2.62.15,5.28.88,7.81.55,1.95,1.44,3.87,2.9,5.31,1.78,1.85,4.26,2.89,6.76,3.32,2.1.4,4.24.3,6.36.28,3.84-.04,7.67-.55,11.43-1.32,0,3.68.02,7.37,0,11.06-5.72,1.4-11.67,1.67-17.53,1.32-5.03-.44-10.22-1.56-14.38-4.58-3.9-2.72-6.62-6.94-7.81-11.51-.98-3.39-1.27-6.93-1.29-10.45,0-14.18,0-28.36,0-42.54-5.42-.02-10.83,0-16.25,0,0-3.73,0-7.46,0-11.19,5.52,0,11.04,0,16.56,0,1.44-7.76,2.66-15.55,4.17-23.3Z" style="fill: #231f20; stroke-width: 0px;"/>
  <path d="M249.22,30.03c7.48-.72,15.1-.57,22.46,1.03,4.44.95,8.75,2.68,12.44,5.37,3.39,2.53,6.14,5.98,7.63,9.96,1.23,3.05,1.78,6.33,2,9.59-4.33.02-8.67,0-13,0-.47-3.5-1.5-7.11-3.97-9.74-2.29-2.56-5.57-3.96-8.84-4.81-3.31-.79-6.73-1.09-10.13-1.08-4.06-.04-8.15.21-12.11,1.14-2.49.64-4.98,1.53-7.07,3.05-2.54,1.82-4.11,4.93-3.97,8.06-.09,2.52.87,5.1,2.81,6.75,2.18,1.8,4.93,2.71,7.61,3.47,6.37,1.65,12.96,2.09,19.49,2.62,5.85.55,11.72,1.56,17.24,3.65,3.99,1.58,7.83,3.93,10.36,7.47,2.52,3.39,3.4,7.72,3.33,11.87.04,5.05-1.87,10.12-5.41,13.74-2.91,3.09-6.75,5.15-10.7,6.58-5.02,1.73-10.33,2.48-15.62,2.79-6.8.3-13.65.05-20.34-1.24-5.84-1.12-11.7-3.33-16.07-7.49-2.41-2.26-4.22-5.12-5.46-8.17-1.18-3.14-1.84-6.47-2.11-9.81,4.31,0,8.62,0,12.92,0,.56,3.42,1.75,6.87,4.21,9.41,2.41,2.67,5.82,4.14,9.21,5.11,3,.81,6.1,1.21,9.2,1.34,6.14.1,12.41.23,18.35-1.59,2.58-.82,5.2-2.03,6.91-4.21,1.53-1.87,2.16-4.34,2.08-6.72.07-2.05-.43-4.19-1.78-5.78-1.71-2.04-4.27-3.06-6.72-3.91-5.46-1.7-11.19-2.18-16.85-2.72-7.39-.45-14.88-1.24-21.87-3.81-3.7-1.46-7.3-3.57-9.76-6.77-2.27-2.97-3.42-6.69-3.64-10.4-.03-2.04-.15-4.11.28-6.12.85-4.63,3.46-8.88,7.18-11.77,5.6-4.39,12.75-6.14,19.71-6.88Z" style="fill: #231f20; stroke-width: 0px;"/>
  <path d="M188.45,31.25c4.21-.01,8.42,0,12.64,0,0,26.35.03,52.69-.02,79.03-4.2,0-8.41,0-12.61,0,0-26.34,0-52.68,0-79.02Z" style="fill: #231f20; stroke-width: 0px;"/>
  <path d="M382.43,31.24c4.21,0,8.42,0,12.63,0,0,26.34,0,52.68,0,79.02-4.21,0-8.42,0-12.63,0,0-26.34,0-52.68,0-79.03Z" style="fill: #231f20; stroke-width: 0px;"/>
</svg>